<?xml version="1.0" encoding="utf-8"?>
<!-- Generator: Adobe Illustrator 24.0.3, SVG Export Plug-In . SVG Version: 6.00 Build 0)  -->
<svg version="1.1" id="Layer_1" xmlns="http://www.w3.org/2000/svg" xmlns:xlink="http://www.w3.org/1999/xlink" x="0px" y="0px"
	 viewBox="0 0 916.19 428.59" style="enable-background:new 0 0 916.19 428.59;" xml:space="preserve">
<style type="text/css">
	.st0{fill:#FFFFFF;}
</style>
<g>
	<g>
		<path d="M376.97,283.91c-38.01,0-68.94,32.62-68.94,72.72c0,40.21,30.94,71.71,70.45,71.71c31.9,0,54.79-16.42,64.45-46.23
			l1.76-5.44h-18.46l-1,2.72c-7.64,20.77-23.37,31.3-46.76,31.3c-28.58,0-50.5-21.11-52.64-50.41h120l0.07-4.09
			c0.29-18.69-7.72-38.15-21.4-52.05C411.65,291.09,394.77,283.91,376.97,283.91z M327.57,342.64c5.76-24.14,25.85-40.84,49.4-40.84
			c23.45,0,43.62,16.7,49.61,40.84H327.57z"/>
		<path d="M70.82,321.3c-40.47-8.17-48.92-19.09-49.17-32.98c-0.35-19.98,17.8-33.4,45.17-33.4c27.49,0,47.45,15.09,47.86,38.44
			l0.07,4.16h16.77v-61.74h-17.31v18.97c-8.55-8.4-23.33-17.22-47.7-17.22c-37.92,0-63.04,20.41-62.51,50.79
			c0.58,33.44,32.53,44.14,63.69,50.2c38.83,7.88,51.4,16.57,51.74,35.75c0.4,22.81-18.54,36.42-50.66,36.42
			c-24.78,0-51.08-13.21-51.6-42.72l-0.07-4.16l-17.05,0.02v61.48h16.18V407.7c2.13,2.23,4.47,4.32,6.99,6.25
			c12.18,9.31,28.9,14.64,45.87,14.64c41.88,0,68.56-21.32,67.99-54.32C136.51,341.17,112.35,329.79,70.82,321.3z"/>
		<path d="M286.67,342.77c0-36.3-21.88-58.86-57.09-58.86c-16.9,0-31.92,6.08-42.72,17.21v-71.65h-35.5v15.47h17.86v164.9h-15.04
			v15.47h47.59v-15.47h-14.9v-67.07c0-23.64,18.26-41.46,42.47-41.46c25.6,0,39.7,14.73,39.7,41.46v67.07h-14.86v15.47h47.59v-15.47
			h-15.09V342.77z"/>
		<path d="M599.71,409.84V229.47h-38.04v15.47h20.4v63.9c-12.66-15.68-31.53-24.92-51.3-24.92c-38.01,0-68.94,32.62-68.94,72.72
			c0,39.54,30.93,71.71,68.94,71.71c19.78,0,38.65-9.11,51.3-24.57v21.55h32.72v-15.47H599.71z M582.06,356.63
			c0,29.81-23.01,54.07-51.3,54.07c-28.28,0-51.3-24.25-51.3-54.07c0-30.23,23.01-54.82,51.3-54.82
			C559.05,301.81,582.06,326.4,582.06,356.63z"/>
	</g>
	<path d="M279.32,54.44c-38.01,0-68.94,32.62-68.94,72.72c0,39.54,30.93,71.71,68.94,71.71c38.15,0,69.19-32.17,69.19-71.71
		C348.5,87.06,317.46,54.44,279.32,54.44z M330.61,127.16c0,30.09-23.01,54.57-51.29,54.57c-28.28,0-51.3-24.48-51.3-54.57
		c0-30.65,23.01-55.58,51.3-55.58C307.6,71.58,330.61,96.51,330.61,127.16z"/>
	<path d="M592.86,54.44c-38.01,0-68.94,32.62-68.94,72.72c0,40.21,30.95,71.71,70.45,71.71c31.89,0,54.78-16.42,64.45-46.23
		l1.76-5.44h-18.45l-1,2.72c-7.64,20.77-23.37,31.3-46.76,31.3c-28.58,0-50.5-21.11-52.64-50.41h120l0.07-4.09
		c0.29-18.69-7.71-38.15-21.4-52.05C627.54,61.63,610.66,54.44,592.86,54.44z M543.46,113.18c5.76-24.14,25.85-40.84,49.4-40.84
		c23.45,0,43.62,16.7,49.61,40.84H543.46z"/>
	<polygon points="32.61,58.47 32.61,182 47.58,182 47.58,195.85 0,195.85 0,182 14.97,182 14.97,26.99 0,26.99 0,12.6 31.67,12.6 
		32.05,13.47 100.79,170.01 169.92,12.6 201.53,12.6 201.53,26.72 186.88,26.72 186.88,181.46 201.53,181.46 201.53,195.85 
		153.95,195.85 153.95,181.46 168.98,181.46 168.98,58.54 108.81,195.85 93.04,195.85 	"/>
	<path d="M901.14,113.3c0-36.3-21.88-58.86-57.09-58.86c-16.9,0-31.92,6.08-42.73,17.21V57.72l-31.74-0.01V72.1h14.09v109.36H768.6
		v14.39h47.59v-14.39h-14.87V113.3c0-23.64,18.26-41.46,42.47-41.46c25.6,0,39.7,14.73,39.7,41.46v68.16h-14.88v14.39h47.58v-14.39
		h-15.06V113.3z"/>
	<path d="M501.83,0H466.5v13.58h17.69v65.79c-12.65-15.68-31.52-24.92-51.29-24.92c-38.01,0-68.94,32.62-68.94,72.72
		c0,39.54,30.93,71.71,68.94,71.71c19.78,0,38.65-9.11,51.29-24.57v21.55h32.44v-14.12h-14.8V0z M484.18,127.16
		c0,29.81-23.01,54.07-51.29,54.07c-28.29,0-51.3-24.25-51.3-54.07c0-30.23,23.01-54.82,51.3-54.82
		C461.18,72.34,484.18,96.93,484.18,127.16z"/>
	<path d="M706.51,113.3c0-12.61,4.76-24.1,13.1-31.54c6.71-6.5,16.66-9.17,28.42-9.07V54.53c-15.01-0.17-28.14,4.63-39.12,14.39
		c-0.86,0.8-1.65,1.96-2.4,3.22V57.72l-35.12-0.01V72.1h17.22v109.36h-15.06v14.39h47.59v-14.39h-14.64V113.3z"/>
</g>
</svg>
