<?xml version="1.0" encoding="utf-8"?>
<!-- Generator: Adobe Illustrator 24.0.3, SVG Export Plug-In . SVG Version: 6.00 Build 0)  -->
<svg version="1.1" id="Layer_1" xmlns="http://www.w3.org/2000/svg" xmlns:xlink="http://www.w3.org/1999/xlink" x="0px" y="0px"
	 viewBox="0 0 458.1 214.3" style="enable-background:new 0 0 458.1 214.3;" xml:space="preserve">
<style type="text/css">
	.st0{fill:#FFFFFF;}
</style>
<g>
	<g>
		<path d="M188.48,141.96c-19.01,0-34.47,16.31-34.47,36.36c0,20.11,15.47,35.86,35.22,35.86c15.95,0,27.39-8.21,32.22-23.12
			l0.88-2.72h-9.23l-0.5,1.36c-3.82,10.39-11.68,15.65-23.38,15.65c-14.29,0-25.25-10.55-26.32-25.2h60l0.03-2.05
			c0.14-9.35-3.86-19.08-10.7-26.03C205.83,145.55,197.39,141.96,188.48,141.96z M163.78,171.32c2.88-12.07,12.92-20.42,24.7-20.42
			c11.73,0,21.81,8.35,24.8,20.42H163.78z"/>
		<path d="M35.41,160.65c-20.23-4.09-24.46-9.55-24.58-16.49c-0.17-9.99,8.9-16.7,22.58-16.7c13.74,0,23.72,7.54,23.93,19.22
			l0.04,2.08h8.39v-30.87h-8.66v9.48c-4.27-4.2-11.66-8.61-23.85-8.61c-18.96,0-31.52,10.2-31.25,25.39
			c0.29,16.72,16.27,22.07,31.85,25.1c19.42,3.94,25.7,8.29,25.87,17.88c0.2,11.4-9.27,18.21-25.33,18.21
			c-12.39,0-25.54-6.61-25.8-21.36l-0.04-2.08l-8.53,0.01v30.74h8.09v-8.81c1.06,1.12,2.23,2.16,3.49,3.13
			c6.09,4.65,14.45,7.32,22.94,7.32c20.94,0,34.28-10.66,33.99-27.16C68.25,170.59,56.18,164.89,35.41,160.65z"/>
		<path d="M143.34,171.38c0-18.15-10.94-29.43-28.55-29.43c-8.45,0-15.96,3.04-21.36,8.6v-35.82H75.68v7.74h8.93v82.45h-7.52v7.74
			h23.79v-7.74h-7.45v-33.54c0-11.82,9.13-20.73,21.24-20.73c12.8,0,19.85,7.36,19.85,20.73v33.54h-7.43v7.74h23.79v-7.74h-7.54
			V171.38z"/>
		<path d="M299.85,204.92v-90.19h-19.02v7.74h10.2v31.95c-6.33-7.84-15.76-12.46-25.65-12.46c-19.01,0-34.47,16.31-34.47,36.36
			c0,19.77,15.46,35.86,34.47,35.86c9.89,0,19.32-4.56,25.65-12.29v10.77h16.36v-7.74H299.85z M291.03,178.31
			c0,14.91-11.51,27.03-25.65,27.03c-14.14,0-25.65-12.13-25.65-27.03c0-15.11,11.51-27.41,25.65-27.41
			C279.53,150.9,291.03,163.2,291.03,178.31z"/>
	</g>
	<path d="M139.66,27.22c-19.01,0-34.47,16.31-34.47,36.36c0,19.77,15.46,35.86,34.47,35.86c19.07,0,34.59-16.08,34.59-35.86
		C174.25,43.53,158.73,27.22,139.66,27.22z M165.3,63.58c0,15.05-11.5,27.29-25.65,27.29c-14.14,0-25.65-12.24-25.65-27.29
		c0-15.32,11.51-27.79,25.65-27.79C153.8,35.79,165.3,48.26,165.3,63.58z"/>
	<path d="M296.43,27.22c-19.01,0-34.47,16.31-34.47,36.36c0,20.11,15.47,35.86,35.22,35.86c15.95,0,27.39-8.21,32.22-23.12
		l0.88-2.72h-9.23l-0.5,1.36c-3.82,10.39-11.68,15.65-23.38,15.65c-14.29,0-25.25-10.55-26.32-25.2h60l0.03-2.05
		c0.14-9.35-3.86-19.08-10.7-26.03C313.77,30.81,305.33,27.22,296.43,27.22z M271.73,56.59c2.88-12.07,12.92-20.42,24.7-20.42
		c11.73,0,21.81,8.35,24.8,20.42H271.73z"/>
	<polygon points="16.31,29.24 16.31,91 23.79,91 23.79,97.92 0,97.92 0,91 7.48,91 7.48,13.49 0,13.49 0,6.3 15.84,6.3 16.03,6.73 
		50.4,85 84.96,6.3 100.77,6.3 100.77,13.36 93.44,13.36 93.44,90.73 100.77,90.73 100.77,97.92 76.97,97.92 76.97,90.73 
		84.49,90.73 84.49,29.27 54.4,97.92 46.52,97.92 	"/>
	<path d="M450.57,56.65c0-18.15-10.94-29.43-28.55-29.43c-8.45,0-15.96,3.04-21.36,8.6v-6.96l-15.87-0.01v7.19h7.05v54.68h-7.54
		v7.19h23.79v-7.19h-7.44V56.65c0-11.82,9.13-20.73,21.24-20.73c12.8,0,19.85,7.36,19.85,20.73v34.08h-7.44v7.19h23.79v-7.19h-7.53
		V56.65z"/>
	<path d="M250.91,0h-17.67v6.79h8.84v32.9c-6.33-7.84-15.76-12.46-25.65-12.46c-19.01,0-34.47,16.31-34.47,36.36
		c0,19.77,15.46,35.86,34.47,35.86c9.89,0,19.32-4.56,25.65-12.29v10.77h16.22v-7.06h-7.4V0z M242.09,63.58
		c0,14.91-11.5,27.03-25.65,27.03c-14.14,0-25.65-12.13-25.65-27.03c0-15.11,11.51-27.41,25.65-27.41
		C230.59,36.17,242.09,48.47,242.09,63.58z"/>
	<path d="M353.26,56.65c0-6.31,2.38-12.05,6.55-15.77c3.36-3.25,8.33-4.58,14.21-4.54v-9.08c-7.51-0.09-14.07,2.31-19.56,7.19
		c-0.43,0.4-0.82,0.98-1.2,1.61v-7.21l-17.56-0.01v7.19h8.61v54.68h-7.53v7.19h23.79v-7.19h-7.32V56.65z"/>
</g>
</svg>
